<svg xmlns="http://www.w3.org/2000/svg" width="1024" height="1024" viewBox="0 0 1024 1024" shape-rendering="geometricPrecision">
<path fill="#00a1ea" fill-rule="evenodd" d="M 417 512 L 410 507 L 390 525 L 399 529 Z M 454 486 L 450 482 L 428 495 L 429 494 L 435 499 Z M 488 468 L 486 466 L 481 466 L 462 475 L 469 478 Z M 581 388 L 578 387 L 572 389 L 569 388 L 569 390 L 567 389 L 567 391 L 562 394 L 562 399 L 576 400 L 576 398 L 580 398 Z M 340 195 L 341 199 L 349 205 L 356 205 L 360 202 L 360 196 L 355 191 L 345 191 Z M 439 144 L 434 144 L 420 150 L 407 150 L 381 158 L 375 162 L 380 167 L 369 173 L 362 181 L 368 188 L 377 191 L 383 189 L 384 187 L 383 181 L 377 175 L 390 175 L 407 184 L 427 202 L 429 206 L 427 212 L 405 226 L 405 228 L 421 242 L 418 248 L 419 261 L 412 277 L 403 284 L 394 285 L 381 274 L 364 267 L 347 269 L 338 277 L 338 279 L 355 280 L 362 283 L 369 289 L 375 299 L 376 321 L 381 334 L 380 341 L 361 375 L 354 403 L 352 446 L 354 459 L 359 465 L 357 469 L 351 468 L 346 460 L 345 424 L 346 415 L 349 410 L 337 424 L 331 440 L 334 468 L 346 521 L 344 533 L 345 561 L 345 552 L 348 542 L 360 521 L 381 500 L 407 482 L 440 465 L 477 451 L 480 448 L 482 449 L 497 444 L 497 442 L 500 443 L 500 441 L 503 442 L 503 440 L 506 441 L 506 439 L 509 440 L 509 438 L 512 439 L 512 437 L 515 438 L 515 436 L 519 437 L 518 436 L 521 434 L 528 434 L 528 432 L 534 430 L 538 431 L 538 429 L 544 429 L 541 426 L 542 423 L 541 425 L 540 424 L 540 411 L 552 403 L 552 397 L 557 393 L 556 394 L 555 392 L 558 391 L 564 383 L 567 383 L 566 382 L 568 380 L 570 381 L 569 380 L 572 380 L 572 378 L 574 379 L 574 377 L 577 378 L 575 377 L 579 377 L 579 375 L 584 376 L 582 375 L 583 374 L 589 375 L 587 375 L 587 373 L 599 373 L 599 368 L 602 366 L 603 367 L 607 363 L 608 364 L 609 362 L 607 363 L 606 361 L 608 358 L 610 360 L 609 357 L 615 350 L 611 344 L 612 342 L 613 343 L 609 340 L 610 339 L 621 342 L 621 344 L 623 343 L 631 349 L 639 359 L 640 356 L 642 358 L 641 359 L 642 358 L 640 355 L 639 357 L 636 351 L 630 345 L 629 346 L 621 340 L 609 336 L 592 314 L 581 303 L 573 300 L 571 288 L 546 239 L 509 206 L 465 174 L 454 162 L 446 149 Z M 429 293 L 398 313 L 396 312 L 422 292 L 427 291 Z M 435 255 L 448 256 L 464 261 L 475 256 L 484 256 L 486 258 L 486 261 L 475 270 L 467 301 L 465 301 L 462 297 L 458 279 L 450 283 L 439 297 L 424 280 L 425 278 L 441 278 L 452 272 L 434 256 Z M 407 178 L 411 177 L 452 188 L 465 193 L 473 199 L 462 203 L 449 202 L 441 198 L 429 188 Z"/>
<path fill="#f8fcfc" fill-rule="evenodd" d="M 474 762 L 469 760 L 455 762 L 448 766 L 438 776 L 432 787 L 429 798 L 429 806 L 434 815 L 441 818 L 456 817 L 469 811 L 477 804 L 481 798 L 481 795 L 467 806 L 458 809 L 450 808 L 445 802 L 445 798 L 447 796 L 463 790 L 474 781 L 478 773 L 478 768 Z M 466 768 L 468 770 L 466 778 L 457 787 L 447 792 L 446 790 L 455 774 L 461 769 Z M 320 811 L 327 818 L 337 817 L 343 813 L 355 799 L 355 810 L 359 817 L 367 818 L 374 815 L 387 802 L 390 814 L 397 818 L 403 815 L 419 797 L 434 771 L 435 764 L 433 761 L 429 760 L 421 763 L 422 775 L 414 792 L 406 802 L 403 765 L 400 762 L 392 761 L 387 763 L 388 793 L 378 805 L 373 806 L 370 803 L 370 796 L 376 777 L 372 774 L 365 773 L 351 796 L 342 805 L 338 806 L 336 804 L 336 795 L 344 780 L 357 769 L 374 769 L 372 763 L 364 760 L 348 763 L 340 768 L 326 784 L 320 799 Z M 327 760 L 322 759 L 316 762 L 302 775 L 299 780 L 298 777 L 301 770 L 301 762 L 297 758 L 287 758 L 283 760 L 286 768 L 274 808 L 274 814 L 277 818 L 287 818 L 288 811 L 295 794 L 306 781 L 317 774 L 319 774 L 323 779 L 329 765 Z M 330 728 L 305 724 L 263 725 L 230 732 L 214 740 L 210 745 L 211 751 L 239 740 L 248 738 L 252 739 L 234 802 L 234 816 L 236 820 L 242 824 L 252 824 L 251 811 L 271 743 L 275 735 L 323 735 L 329 733 L 331 731 Z M 354 404 L 347 415 L 346 450 L 349 465 L 353 468 L 357 468 L 358 465 L 353 459 L 351 446 Z M 632 353 L 624 346 L 611 340 L 619 351 L 624 363 L 624 375 L 615 390 L 610 382 L 605 377 L 600 375 L 580 377 L 566 384 L 558 392 L 553 403 L 542 413 L 544 417 L 542 422 L 544 426 L 549 428 L 568 426 L 574 422 L 576 414 L 582 409 L 585 409 L 592 415 L 601 411 L 604 407 L 605 399 L 611 392 L 614 394 L 615 403 L 625 391 L 630 376 L 631 382 L 625 398 L 610 414 L 597 423 L 582 430 L 568 434 L 548 434 L 543 431 L 539 431 L 480 450 L 440 466 L 414 479 L 381 501 L 361 521 L 354 531 L 348 545 L 346 568 L 348 581 L 354 597 L 354 577 L 357 567 L 367 548 L 376 537 L 385 544 L 369 569 L 364 588 L 367 578 L 368 581 L 373 580 L 379 583 L 391 584 L 391 589 L 402 568 L 421 542 L 442 521 L 461 506 L 496 484 L 588 442 L 620 420 L 635 402 L 641 386 L 640 367 Z M 418 512 L 399 530 L 389 525 L 410 506 Z M 455 486 L 435 500 L 427 495 L 450 481 Z M 489 468 L 469 479 L 466 479 L 461 475 L 481 465 L 486 465 Z M 524 453 L 504 463 L 501 463 L 497 459 L 517 450 L 521 450 Z M 553 440 L 551 443 L 540 448 L 534 449 L 531 446 L 532 444 L 549 438 Z M 585 387 L 583 396 L 576 401 L 564 402 L 559 399 L 561 394 L 571 386 L 582 385 Z M 602 380 L 604 382 L 604 386 L 589 396 L 589 383 L 593 380 Z M 435 256 L 453 272 L 441 279 L 425 280 L 439 296 L 450 282 L 458 278 L 460 280 L 463 297 L 467 300 L 474 270 L 485 261 L 485 258 L 475 257 L 464 262 L 448 257 Z"/>
<path fill="#11ab96" fill-rule="evenodd" d="M 627 392 L 626 390 L 615 404 L 613 394 L 610 394 L 607 398 L 608 399 L 610 397 L 612 399 L 612 406 L 608 410 L 605 410 L 605 403 L 606 407 L 601 412 L 593 416 L 585 410 L 582 410 L 577 414 L 576 421 L 571 426 L 562 429 L 547 429 L 541 424 L 543 417 L 541 416 L 541 412 L 544 408 L 550 405 L 552 400 L 552 402 L 541 411 L 541 424 L 545 429 L 519 436 L 538 430 L 543 430 L 550 433 L 566 433 L 587 427 L 610 413 L 621 402 L 626 394 L 625 393 Z M 603 383 L 601 381 L 591 382 L 589 385 L 589 395 L 603 386 Z M 640 353 L 632 347 L 637 351 L 640 357 L 639 360 L 631 350 L 618 342 L 627 347 L 638 360 L 642 371 L 642 386 L 640 394 L 632 408 L 620 421 L 588 443 L 496 485 L 464 505 L 458 511 L 457 510 L 453 515 L 452 514 L 443 523 L 442 522 L 422 542 L 423 543 L 417 548 L 418 549 L 414 552 L 415 553 L 411 556 L 412 557 L 403 568 L 392 588 L 392 584 L 386 585 L 373 581 L 368 582 L 367 579 L 365 588 L 363 588 L 368 569 L 377 554 L 376 553 L 380 549 L 379 548 L 377 552 L 375 551 L 375 548 L 372 551 L 369 549 L 373 542 L 367 550 L 368 551 L 365 553 L 365 556 L 362 558 L 359 565 L 360 567 L 358 567 L 359 569 L 356 573 L 357 576 L 355 577 L 356 591 L 354 591 L 354 586 L 354 598 L 356 611 L 358 611 L 357 616 L 358 615 L 360 617 L 359 623 L 373 623 L 375 627 L 378 626 L 380 628 L 378 630 L 380 629 L 383 632 L 390 629 L 392 631 L 397 628 L 400 629 L 401 627 L 403 628 L 404 626 L 408 626 L 408 622 L 411 624 L 417 618 L 420 618 L 426 613 L 427 614 L 429 610 L 433 611 L 442 603 L 445 604 L 445 602 L 450 601 L 455 593 L 460 591 L 459 590 L 470 581 L 471 582 L 476 575 L 480 574 L 481 572 L 482 574 L 487 565 L 489 566 L 488 565 L 498 559 L 500 555 L 502 556 L 512 546 L 512 543 L 514 545 L 516 542 L 518 543 L 520 538 L 521 540 L 524 535 L 527 536 L 539 525 L 540 526 L 541 524 L 542 525 L 543 522 L 545 522 L 545 519 L 549 519 L 556 513 L 558 514 L 558 511 L 565 508 L 567 503 L 572 501 L 573 498 L 574 500 L 577 496 L 578 498 L 580 495 L 581 496 L 581 493 L 586 489 L 586 487 L 589 488 L 588 490 L 594 485 L 594 483 L 607 476 L 608 471 L 610 474 L 611 471 L 613 470 L 614 472 L 616 466 L 620 467 L 624 463 L 627 463 L 626 462 L 634 455 L 639 455 L 641 453 L 642 455 L 646 450 L 647 452 L 651 448 L 653 449 L 655 447 L 658 447 L 658 449 L 660 447 L 669 446 L 672 448 L 674 455 L 672 449 L 673 446 L 671 444 L 671 439 L 661 405 L 652 387 L 651 371 L 647 362 Z M 610 340 L 615 348 L 615 351 L 610 357 L 611 360 L 610 361 L 608 359 L 609 360 L 607 361 L 610 362 L 609 364 L 603 368 L 600 368 L 599 374 L 587 374 L 576 377 L 568 381 L 558 390 L 570 380 L 587 374 L 600 374 L 605 376 L 615 389 L 623 375 L 623 363 L 619 353 Z"/>
<path fill="#29b25a" fill-rule="evenodd" d="M 673 447 L 672 450 L 669 447 L 659 449 L 655 448 L 653 450 L 651 449 L 650 451 L 647 450 L 642 456 L 641 454 L 639 456 L 634 456 L 629 461 L 628 460 L 629 461 L 625 465 L 624 464 L 620 468 L 616 467 L 614 473 L 613 471 L 610 475 L 608 472 L 607 477 L 604 479 L 603 477 L 604 479 L 594 484 L 594 486 L 591 486 L 591 489 L 586 488 L 587 489 L 579 497 L 578 496 L 574 501 L 573 499 L 572 502 L 570 501 L 571 502 L 568 503 L 568 506 L 566 508 L 565 507 L 565 509 L 560 509 L 562 511 L 559 511 L 560 513 L 558 515 L 556 514 L 549 520 L 545 520 L 542 526 L 541 525 L 540 527 L 538 525 L 539 526 L 532 531 L 531 534 L 527 537 L 524 536 L 521 541 L 520 539 L 518 544 L 516 543 L 514 546 L 512 544 L 513 546 L 508 551 L 507 550 L 507 552 L 504 552 L 505 553 L 502 557 L 500 556 L 499 559 L 497 557 L 498 556 L 498 560 L 494 560 L 494 562 L 487 566 L 487 569 L 485 569 L 482 575 L 481 573 L 480 575 L 476 576 L 477 577 L 473 579 L 471 583 L 466 584 L 467 585 L 465 587 L 463 586 L 464 587 L 460 590 L 460 592 L 457 592 L 453 598 L 450 598 L 450 602 L 447 601 L 447 603 L 442 604 L 438 608 L 434 608 L 435 609 L 433 612 L 431 612 L 431 610 L 429 611 L 427 615 L 426 614 L 420 619 L 417 619 L 411 625 L 408 623 L 408 625 L 403 629 L 397 629 L 392 632 L 389 629 L 389 631 L 383 633 L 380 630 L 377 630 L 379 628 L 378 627 L 375 628 L 372 625 L 373 624 L 371 625 L 371 621 L 369 621 L 371 622 L 369 625 L 367 624 L 368 623 L 364 625 L 360 624 L 364 634 L 364 646 L 378 676 L 384 685 L 393 694 L 415 708 L 423 707 L 436 715 L 423 706 L 426 706 L 425 705 L 427 703 L 433 703 L 431 702 L 431 698 L 434 698 L 439 694 L 437 693 L 443 688 L 442 687 L 444 685 L 445 687 L 446 682 L 449 682 L 448 681 L 455 676 L 455 673 L 460 671 L 459 670 L 466 663 L 469 656 L 471 658 L 474 653 L 475 655 L 474 653 L 481 646 L 482 641 L 484 644 L 484 640 L 487 639 L 487 636 L 495 630 L 498 625 L 499 626 L 502 622 L 503 623 L 504 618 L 513 613 L 512 612 L 515 607 L 516 608 L 523 603 L 524 604 L 523 603 L 530 597 L 531 598 L 530 597 L 533 596 L 539 588 L 542 588 L 540 587 L 542 585 L 543 586 L 544 583 L 549 581 L 552 576 L 553 578 L 554 575 L 558 572 L 559 573 L 561 568 L 566 567 L 568 562 L 575 559 L 577 554 L 581 556 L 580 553 L 583 552 L 586 547 L 589 548 L 592 543 L 599 542 L 600 537 L 605 536 L 606 534 L 607 535 L 606 534 L 608 531 L 610 532 L 610 530 L 618 524 L 619 526 L 624 520 L 629 519 L 637 512 L 638 513 L 647 508 L 646 507 L 648 504 L 649 506 L 655 503 L 655 501 L 659 498 L 670 495 L 677 490 L 679 492 L 683 487 L 684 488 L 684 486 L 686 486 L 687 483 L 680 471 Z"/>
<path fill="#91d008" fill-rule="evenodd" d="M 643 764 L 644 765 L 632 775 L 626 784 L 627 785 L 637 773 L 640 773 L 646 778 L 649 777 L 651 779 L 650 781 L 651 779 L 652 781 L 654 778 L 655 779 L 652 791 L 660 768 L 656 764 Z M 776 765 L 770 762 L 755 762 L 748 765 L 745 764 L 746 765 L 730 779 L 723 793 L 726 787 L 733 780 L 734 782 L 735 780 L 737 782 L 742 781 L 740 785 L 738 784 L 740 786 L 739 788 L 745 778 L 752 771 L 758 768 L 777 769 Z M 724 765 L 714 762 L 714 764 L 711 763 L 711 765 L 706 768 L 704 767 L 705 768 L 697 775 L 696 774 L 697 775 L 690 783 L 693 782 L 696 784 L 696 789 L 697 788 L 703 797 L 695 783 L 708 775 L 711 776 L 711 774 L 717 771 L 724 770 Z M 625 763 L 611 762 L 611 775 L 607 790 L 611 778 L 613 779 L 612 781 L 616 779 L 618 781 L 620 780 L 621 782 L 622 779 L 623 782 L 627 778 L 625 777 Z M 595 765 L 588 762 L 575 762 L 568 764 L 559 769 L 549 779 L 544 789 L 546 785 L 550 783 L 552 778 L 558 777 L 561 782 L 556 791 L 563 779 L 574 770 L 576 771 L 575 770 L 578 768 L 595 769 Z M 704 719 L 694 719 L 695 720 L 692 724 L 690 724 L 691 727 L 689 727 L 690 730 L 688 730 L 689 733 L 687 733 L 688 736 L 686 736 L 687 739 L 685 739 L 686 743 L 685 746 L 683 746 L 684 749 L 682 749 L 683 753 L 671 789 L 676 778 L 680 781 L 684 778 L 686 780 L 685 782 L 684 781 L 688 784 L 686 781 L 689 779 L 687 778 L 690 775 L 691 776 L 690 773 L 695 761 L 696 762 L 695 759 L 697 759 L 696 756 L 703 738 L 704 739 L 703 736 L 705 736 L 705 730 L 707 730 L 707 721 L 704 721 Z M 540 719 L 531 719 L 527 722 L 510 773 L 512 768 L 515 766 L 525 766 L 525 775 L 538 736 L 540 736 L 539 733 L 542 726 L 542 721 Z M 711 526 L 710 528 L 709 525 L 706 530 L 705 528 L 700 534 L 698 533 L 694 535 L 695 536 L 688 540 L 689 539 L 690 541 L 686 544 L 680 544 L 677 548 L 672 549 L 670 552 L 665 552 L 650 564 L 648 563 L 649 564 L 646 568 L 642 569 L 638 574 L 632 576 L 632 578 L 629 578 L 619 588 L 619 590 L 617 590 L 617 592 L 613 595 L 612 594 L 610 600 L 608 599 L 603 605 L 602 603 L 598 610 L 596 608 L 591 616 L 584 618 L 586 620 L 581 623 L 582 626 L 578 627 L 577 629 L 576 628 L 576 633 L 569 637 L 567 641 L 564 641 L 565 642 L 562 644 L 562 647 L 558 649 L 554 656 L 552 656 L 552 660 L 550 661 L 551 663 L 548 665 L 547 664 L 546 668 L 538 674 L 539 676 L 536 679 L 536 683 L 532 686 L 536 686 L 536 689 L 534 689 L 536 692 L 535 695 L 533 696 L 533 694 L 531 694 L 530 700 L 516 710 L 534 700 L 551 696 L 566 698 L 566 696 L 569 697 L 570 695 L 584 696 L 584 694 L 590 695 L 593 693 L 595 694 L 608 691 L 635 681 L 653 670 L 674 662 L 684 655 L 691 648 L 704 625 L 715 591 L 715 575 L 713 568 L 716 557 L 714 535 L 712 533 L 713 531 L 710 528 Z"/>
<path fill="#01428a" fill-rule="evenodd" d="M 466 769 L 460 771 L 454 777 L 448 790 L 458 785 L 464 779 L 467 772 Z M 200 753 L 204 761 L 222 776 L 218 812 L 219 819 L 223 827 L 229 833 L 238 837 L 271 838 L 333 830 L 378 828 L 419 828 L 444 830 L 464 826 L 473 821 L 480 814 L 487 803 L 503 755 L 506 740 L 500 738 L 427 746 L 383 744 L 356 740 L 353 738 L 376 722 L 375 720 L 321 712 L 277 712 L 247 716 L 219 725 L 204 737 L 200 746 Z M 474 761 L 479 767 L 479 774 L 476 780 L 462 792 L 446 798 L 446 801 L 449 806 L 457 808 L 470 803 L 482 794 L 483 795 L 479 803 L 468 813 L 457 818 L 440 819 L 435 817 L 429 810 L 428 796 L 436 777 L 445 767 L 457 760 L 470 759 Z M 319 811 L 319 798 L 326 782 L 341 766 L 350 761 L 357 759 L 369 760 L 374 764 L 375 769 L 372 772 L 366 769 L 361 769 L 351 774 L 339 790 L 337 796 L 337 803 L 339 805 L 349 797 L 356 787 L 360 777 L 365 772 L 370 772 L 377 776 L 371 797 L 371 803 L 375 805 L 380 802 L 387 792 L 386 763 L 391 760 L 397 760 L 404 764 L 406 801 L 419 780 L 421 774 L 420 762 L 426 759 L 431 759 L 436 763 L 435 771 L 421 796 L 415 804 L 398 819 L 393 818 L 389 814 L 387 803 L 377 814 L 368 819 L 361 819 L 355 814 L 355 800 L 342 815 L 334 819 L 327 819 L 323 817 Z M 326 758 L 330 762 L 330 767 L 324 779 L 322 780 L 318 775 L 310 779 L 296 794 L 292 802 L 288 818 L 285 820 L 275 818 L 273 815 L 273 807 L 284 772 L 282 760 L 290 756 L 297 757 L 301 760 L 302 771 L 299 778 L 314 762 L 321 758 Z M 330 727 L 332 729 L 331 733 L 324 736 L 274 737 L 253 808 L 253 825 L 245 826 L 239 824 L 233 817 L 233 801 L 241 769 L 251 739 L 222 747 L 213 752 L 208 749 L 210 743 L 215 738 L 227 732 L 262 724 L 308 723 Z"/>
<path fill="#58c02b" fill-rule="evenodd" d="M 688 484 L 682 490 L 679 490 L 679 493 L 677 491 L 670 496 L 659 499 L 655 504 L 649 507 L 648 505 L 647 509 L 638 514 L 637 513 L 629 520 L 624 521 L 619 527 L 618 525 L 608 532 L 605 537 L 601 537 L 599 543 L 592 544 L 590 548 L 586 548 L 580 556 L 577 555 L 578 556 L 575 560 L 568 563 L 566 568 L 561 569 L 560 573 L 554 576 L 553 579 L 552 577 L 549 582 L 544 584 L 544 586 L 541 587 L 543 588 L 539 589 L 534 595 L 533 594 L 533 597 L 527 600 L 519 608 L 515 608 L 512 613 L 513 614 L 504 619 L 504 623 L 499 624 L 500 626 L 498 626 L 497 629 L 490 635 L 489 634 L 490 635 L 488 636 L 488 639 L 485 640 L 484 645 L 482 642 L 483 641 L 482 646 L 480 646 L 481 647 L 476 651 L 476 653 L 473 653 L 474 655 L 470 659 L 469 657 L 467 663 L 460 670 L 461 671 L 456 673 L 455 677 L 453 677 L 446 684 L 445 683 L 447 686 L 445 688 L 444 686 L 444 688 L 442 690 L 441 689 L 442 690 L 438 693 L 440 694 L 434 699 L 432 698 L 432 702 L 430 704 L 424 706 L 433 712 L 454 721 L 485 723 L 509 714 L 512 710 L 514 711 L 517 707 L 520 707 L 519 705 L 521 702 L 523 703 L 522 704 L 525 704 L 529 700 L 529 697 L 535 693 L 535 686 L 532 685 L 535 683 L 535 679 L 538 676 L 537 674 L 545 668 L 547 663 L 550 663 L 549 661 L 551 660 L 551 656 L 556 653 L 557 654 L 557 649 L 561 647 L 561 644 L 567 640 L 566 639 L 575 633 L 574 630 L 577 628 L 578 629 L 578 626 L 581 626 L 580 623 L 585 620 L 583 618 L 591 615 L 595 609 L 596 610 L 600 606 L 601 607 L 602 602 L 603 604 L 608 598 L 610 599 L 609 597 L 612 593 L 613 594 L 617 591 L 629 577 L 632 577 L 632 575 L 638 573 L 642 568 L 646 567 L 648 562 L 650 563 L 665 551 L 670 551 L 672 548 L 677 547 L 680 543 L 686 543 L 689 541 L 689 538 L 692 539 L 691 537 L 694 536 L 694 534 L 697 535 L 705 527 L 706 529 L 709 524 L 709 528 L 711 528 L 710 523 Z"/>
<path fill="#5a9f03" fill-rule="evenodd" d="M 790 799 L 788 797 L 778 806 L 772 805 L 772 794 L 778 778 L 774 775 L 766 774 L 753 795 L 744 804 L 738 804 L 737 798 L 740 789 L 753 772 L 759 769 L 778 771 L 778 766 L 774 762 L 760 760 L 750 762 L 740 767 L 729 778 L 719 797 L 713 802 L 709 802 L 705 798 L 698 784 L 711 775 L 725 771 L 726 766 L 721 762 L 715 762 L 707 765 L 691 779 L 690 778 L 707 729 L 707 722 L 705 720 L 695 719 L 691 722 L 669 790 L 663 799 L 656 805 L 653 805 L 651 802 L 661 772 L 660 766 L 657 763 L 648 762 L 637 768 L 628 778 L 628 767 L 623 761 L 614 761 L 609 764 L 610 773 L 604 794 L 595 805 L 592 806 L 590 804 L 590 798 L 596 778 L 589 774 L 583 775 L 572 794 L 562 804 L 558 805 L 556 803 L 557 793 L 563 782 L 570 774 L 579 769 L 595 771 L 597 768 L 594 763 L 589 761 L 573 761 L 559 767 L 547 779 L 540 794 L 539 807 L 544 815 L 553 817 L 563 813 L 574 803 L 575 810 L 580 817 L 589 817 L 601 808 L 605 817 L 613 817 L 616 815 L 619 802 L 624 792 L 640 775 L 642 776 L 642 780 L 636 797 L 635 810 L 637 815 L 642 818 L 647 818 L 654 815 L 663 807 L 667 816 L 677 816 L 686 791 L 690 806 L 693 812 L 699 817 L 708 816 L 720 805 L 726 816 L 732 818 L 738 817 L 750 809 L 755 803 L 758 813 L 761 816 L 766 818 L 773 817 L 787 807 Z M 777 778 L 773 789 L 773 784 L 771 782 L 766 782 L 768 783 L 765 784 L 764 781 L 758 792 L 757 791 L 766 775 L 774 775 Z M 595 778 L 592 785 L 589 783 L 589 780 L 584 780 L 584 783 L 579 787 L 578 786 L 582 776 L 585 774 L 591 775 Z M 625 782 L 639 767 L 644 764 L 656 763 L 661 768 L 653 791 L 652 787 L 654 779 L 652 782 L 649 778 L 646 779 L 640 774 L 637 774 L 637 776 L 628 785 Z M 725 765 L 724 771 L 708 776 L 698 783 L 689 783 L 708 765 L 715 762 L 720 762 Z M 777 765 L 777 770 L 758 769 L 752 772 L 740 788 L 737 784 L 740 784 L 741 781 L 739 783 L 735 781 L 734 783 L 733 781 L 730 784 L 729 783 L 730 784 L 724 793 L 723 792 L 729 779 L 746 764 L 755 761 L 770 761 Z M 625 762 L 627 765 L 626 777 L 628 778 L 623 783 L 622 780 L 621 783 L 618 780 L 613 781 L 611 779 L 609 786 L 609 765 L 616 761 Z M 596 765 L 595 770 L 578 769 L 572 772 L 564 779 L 558 789 L 557 786 L 560 782 L 558 778 L 552 779 L 552 781 L 549 782 L 550 781 L 551 783 L 548 784 L 544 790 L 543 789 L 548 779 L 559 768 L 568 763 L 575 761 L 588 761 Z M 703 719 L 707 722 L 707 729 L 691 775 L 688 778 L 690 779 L 686 783 L 684 782 L 685 780 L 683 778 L 684 779 L 681 782 L 676 779 L 673 785 L 672 782 L 690 725 L 695 719 Z M 541 718 L 532 717 L 526 720 L 499 798 L 478 836 L 497 832 L 519 832 L 558 839 L 577 839 L 587 832 L 587 829 L 512 817 L 543 727 L 543 720 Z M 540 718 L 543 721 L 543 726 L 526 775 L 523 775 L 525 767 L 515 767 L 511 771 L 510 768 L 526 722 L 531 718 Z"/>
</svg>